PathFileType        4      (X/Y/Z)      C:\Users\pc\Desktop\IMUTRC\Sujet_06\Sujet_06_velo_100.trc         
DataRate	CameraRate	NumFrames	NumMarkers	Units	OrigDataRate	OrigDataStartFrame	OrigNumFrames
60.0	60.0	4	64	mm	60.0	117	933
Frame#	Time	pHipOrigin			pRightASI			pLeftASI			pRightCSI			pLeftCSI			pRightIschialTub			pLeftIschialTub			pSacrum			pL5SpinalProcess			pL3SpinalProcess			pT12SpinalProcess			pIJ			pT4SpinalProcess			pT8SpinalProcess			pPX			pC7SpinalProcess			pTopOfHead			pRightAuricularis			pLeftAuricularis			pBackOfHead			pRightAcromion			pLeftAcromion			pRightArmLatEpicondyle			pRightArmMedEpicondyle			pLeftArmLatEpicondyle			pLeftArmMedEpicondyle			pRightUlnarStyloid			pRightRadialStyloid			pRightOlecranon			pLeftUlnarStyloid			pLeftRadialStyloid			pLeftOlecranon			pRightTopOfHand			pRightPinky			pRightBallHand			pLeftTopOfHand			pLeftPinky			pLeftBallHand			pRightGreaterTrochanter			pRightKneeLatEpicondyle			pRightKneeMedEpicondyle			pRightPatella			pLeftGreaterTrochanter			pLeftKneeLatEpicondyle			pLeftKneeMedEpicondyle			pLeftPatella			pRightTibialTub			pRightLatMalleolus			pRightMedMalleolus			pLeftTibialTub			pLeftLatMalleolus			pLeftMedMalleolus			pRightHeelFoot			pRightFirstMetatarsal			pRightFifthMetatarsal			pRightPivotFoot			pRightHeelCenter			pRightToe			pLeftHeelFoot			pLeftFirstMetatarsal			pLeftFifthMetatarsal			pLeftPivotFoot			pLeftHeelCenter			pLeftToe			
		X1	Y1	Z1	X2	Y2	Z2	X3	Y3	Z3	X4	Y4	Z4	X5	Y5	Z5	X6	Y6	Z6	X7	Y7	Z7	X8	Y8	Z8	X9	Y9	Z9	X10	Y10	Z10	X11	Y11	Z11	X12	Y12	Z12	X13	Y13	Z13	X14	Y14	Z14	X15	Y15	Z15	X16	Y16	Z16	X17	Y17	Z17	X18	Y18	Z18	X19	Y19	Z19	X20	Y20	Z20	X21	Y21	Z21	X22	Y22	Z22	X23	Y23	Z23	X24	Y24	Z24	X25	Y25	Z25	X26	Y26	Z26	X27	Y27	Z27	X28	Y28	Z28	X29	Y29	Z29	X30	Y30	Z30	X31	Y31	Z31	X32	Y32	Z32	X33	Y33	Z33	X34	Y34	Z34	X35	Y35	Z35	X36	Y36	Z36	X37	Y37	Z37	X38	Y38	Z38	X39	Y39	Z39	X40	Y40	Z40	X41	Y41	Z41	X42	Y42	Z42	X43	Y43	Z43	X44	Y44	Z44	X45	Y45	Z45	X46	Y46	Z46	X47	Y47	Z47	X48	Y48	Z48	X49	Y49	Z49	X50	Y50	Z50	X51	Y51	Z51	X52	Y52	Z52	X53	Y53	Z53	X54	Y54	Z54	X55	Y55	Z55	X56	Y56	Z56	X57	Y57	Z57	X58	Y58	Z58	X59	Y59	Z59	X60	Y60	Z60	X61	Y61	Z61	X62	Y62	Z62	X63	Y63	Z63	X64	Y64	Z64	
117	1.933	0.0	1250.03612	7.654263665882883E-14	37.00975000000001	1328.90516	128.7684000000001	86.90909999999998	1335.79663	-96.22533999999993	6.380990000000013	1390.2903	105.28635000000008	48.495529999999995	1396.03319	-84.35669999999992	-60.747029999999995	1202.43392	34.84021000000008	-39.68976000000001	1205.24156	-59.98130999999992	-55.76986	1272.36958	-11.741019999999915	-21.05727	1361.70346	-1.6590599999999138	28.84208	1469.66982	8.550530000000087	76.82713	1567.55422	16.718200000000085	324.02672	1644.63659	63.29943000000006	196.53452	1725.03708	34.712590000000084	134.89415	1658.67477	25.396340000000084	243.49861	1550.32555	51.430790000000066	240.69098	1769.70401	42.62502000000008	519.0298	1807.22424	35.09545000000005	424.33589	1785.52887	117.02737000000006	410.93581	1782.84886	-27.05539999999994	405.0653	1839.63967	45.04980000000006	206.61649000000003	1751.45438	218.86799000000008	280.25312	1735.37428	-130.55506999999992	356.05929000000003	1492.51377	242.47765000000004	346.87066	1480.90037	181.22014000000004	431.22736	1489.57851	-169.09625999999997	404.04434	1462.65073	-118.94166999999996	537.78991	1310.78315	233.67189000000002	562.8034	1341.41191	199.85263000000003	336.53346	1474.26414	230.99187000000006	637.07813	1342.30524	-159.14191	644.99056	1360.6825	-111.15686	411.70153	1469.79744	-169.98959999999997	711.86334	1292.27828	185.68683	640.77911	1278.75057	223.58992	575.31014	1301.08404	216.44321000000002	799.1553	1364.76633	-79.25191000000001	743.1302	1341.53953	-134.00081	673.70502	1337.71093	-135.78749	-8.678149999999983	1212.38827	143.5723000000001	257.79203	942.47235	127.74744000000003	274.63785	955.23434	57.04606000000002	293.27034	978.844	101.71299000000002	52.19650999999999	1245.18656	-143.1894399999999	365.37554	1032.82719	-111.66733999999998	357.97359	1022.36236	-38.92403999999998	381.32802	1062.81784	-65.72420999999997	312.41331	917.45887	95.45962000000002	210.18984000000003	559.86814	128.64078	213.63558	558.3367	69.68042	374.94702	978.2059	-72.36043999999998	78.86904999999999	754.7436	-114.47497999999997	77.08237	753.72264	-55.386999999999965	156.97238	486.61437	91.88627000000001	314.19999	450.37034	85.25003999999998	300.03419	453.43321	160.29049	327.98293	446.9246	125.83313999999999	193.2164	480.10575	99.03298	400.85385	429.95117	140.38179999999997	-12.12388000000001	739.17399	-84.35669999999996	76.06141	608.49129	-49.51648999999997	75.42330999999999	609.51225	-125.96075999999996	87.80242999999999	590.87976	-87.03671999999997	10.33720999999999	709.18333	-84.99479999999996	130.29983	527.32509	-88.18528999999998	
118	1.95	0.0	1250.03612	7.654263665882883E-14	37.39261000000001	1328.77754	128.7684000000001	86.78147999999999	1335.79663	-96.35295999999992	6.891470000000013	1390.03506	105.41397000000009	48.495529999999995	1396.03319	-84.35669999999992	-60.747029999999995	1202.43392	34.96783000000008	-39.94500000000001	1205.36918	-59.98130999999992	-55.76986	1272.36958	-11.485779999999915	-20.92965	1361.70346	-1.5314399999999138	28.84208	1469.66982	8.678150000000088	76.57189	1567.68184	16.718200000000085	323.64386	1645.52993	62.78895000000006	195.89642	1725.54756	34.45735000000008	134.51129	1658.80239	25.268720000000084	243.49861	1550.96365	51.175550000000065	239.92526	1770.34211	42.24216000000008	518.26408	1807.73472	33.56401000000005	423.82542	1786.42221	115.87879000000005	409.91485	1783.35933	-28.07635999999994	404.4272	1840.40539	43.901220000000066	206.74410000000003	1752.47534	218.35751000000008	279.10454	1735.5019	-131.19316999999992	355.67643000000004	1492.76901	241.83955000000003	345.72209	1480.90037	180.83728000000005	430.20641	1489.83375	-168.96863999999997	403.27862	1463.16121	-118.68642999999996	536.51371	1310.40029	233.79951000000003	561.5272	1340.90143	199.72501000000003	335.76774	1474.51938	230.60901000000007	635.92955	1342.17762	-158.75905	643.84198	1360.6825	-110.774	410.80819	1470.1803	-169.86197999999996	710.45953	1291.38494	185.30398	639.50291	1278.11248	223.33468	574.03394	1300.57356	216.31559000000001	798.00672	1364.25585	-78.99667000000001	741.98162	1341.15667	-133.61795	672.55644	1337.58331	-135.40463	-11.230539999999982	1211.62255	143.4446800000001	237.50048000000004	925.11606	128.13030000000003	255.6225	936.9847	57.55654000000003	275.40357	959.19055	102.47871000000004	52.70697999999999	1247.48372	-142.93419999999992	376.98894	1052.73588	-110.26351999999997	369.71461	1041.63295	-37.64784999999998	390.8995	1083.36463	-64.06514999999997	293.6532	899.08162	96.09772000000001	192.96116000000004	541.10803	128.89602	196.53452	539.57659	69.93566	386.56043	997.85936	-70.82899999999998	91.12054999999998	774.0142	-115.24069999999998	88.95101	772.99324	-56.15271999999997	136.93606	470.15141	91.37579000000001	292.63224	428.16449	82.18715999999999	279.4874	430.33403	157.48286	306.79804	423.44256	122.64263999999999	173.05247	462.23898	98.01202000000002	379.03086	403.40624	135.91510999999997	0.7657199999999894	754.61598	-85.76051999999996	94.43867	627.76188	-50.79268999999998	94.31104999999998	629.03808	-127.10933999999997	107.20064999999998	610.91607	-88.18528999999997	24.50300999999999	725.64628	-86.27099999999996	152.37806	549.53094	-89.20624999999998	
119	1.967	0.0	1250.03612	7.654263665882883E-14	37.39261000000001	1328.5223	128.89602000000008	86.90909999999998	1335.79663	-96.09771999999992	7.019090000000014	1389.90744	105.66921000000009	48.750769999999996	1396.16081	-84.10145999999992	-60.874649999999995	1202.43392	34.84021000000008	-39.94500000000001	1205.4968	-60.10892999999992	-55.64224	1272.4972	-11.485779999999915	-20.92965	1361.57584	-1.276199999999914	28.84208	1469.66982	8.933390000000086	76.31665	1567.68184	17.101060000000086	323.13338	1646.55089	63.17181000000006	195.00308	1726.05804	34.840210000000084	133.87319	1659.05763	25.779200000000085	243.37099	1551.72937	51.430790000000066	238.77668	1770.98021	42.75264000000008	517.1155	1808.50044	32.92591000000005	423.0597	1787.44317	115.75117000000006	408.38342	1784.12505	-28.20397999999994	403.27862	1841.29873	43.773600000000066	206.36125000000004	1753.24106	218.6127500000001	277.82834	1736.01238	-131.06554999999992	354.7830900000001	1493.02425	242.22241000000002	344.44589	1480.77275	181.34776000000005	429.31307	1490.47185	-168.45815999999996	402.76815	1464.18217	-117.79308999999996	535.23752	1310.27267	234.43761000000003	560.251	1340.51857	200.36311000000003	334.74678	1474.647	231.11949000000007	634.90859	1342.43286	-157.99333	642.82102	1360.93774	-109.88066	410.17009	1471.07364	-169.22387999999998	709.18333	1291.1297	185.94207	638.09909	1277.85724	223.97278	572.75774	1300.31832	216.95369000000002	797.11338	1363.74537	-78.10333000000001	740.83304	1341.02905	-132.85223	671.40786	1337.58331	-134.63891	-13.782939999999982	1211.23969	143.4446800000001	219.37847000000002	911.8436	129.91697000000002	238.77668	922.8189	59.59845000000003	259.32347	943.87617	104.64825000000003	53.47269999999999	1249.9085	-142.6789599999999	387.32615	1072.38933	-108.22160999999997	380.05182	1060.52069	-35.73354999999999	399.32241	1103.52856	-61.89560999999998	276.29691	884.66058	98.39488000000003	172.66961000000003	527.32509	129.66173	177.00869	525.79365	70.70138	397.28049	1017.38519	-68.78707999999999	105.41396999999999	789.20095	-114.85783999999997	102.98919	788.18	-55.897479999999966	114.09212000000001	459.04848	90.99293000000002	267.74638	410.42533	80.40049	254.85678000000001	411.82915	155.69618	281.78456	404.4272	120.72835	149.69805	449.34938	97.37392000000001	353.12404	381.07278	133.23508999999999	16.335339999999988	763.80461	-86.27099999999996	118.17595	643.07626	-52.196509999999975	118.30356999999998	645.2458	-128.64078	132.21413	627.50664	-89.84434999999998	41.98691999999999	736.49397	-86.90909999999995	181.22014	569.95011	-91.37579	
120	1.983	0.0	1250.03612	7.654263665882883E-14	37.13737000000001	1328.13944	129.1512600000001	87.29195999999999	1335.92425	-95.71485999999993	6.891470000000013	1389.6522	105.92445000000008	49.13362999999999	1396.28843	-83.59097999999992	-61.002269999999996	1202.43392	34.58497000000008	-39.81738000000001	1205.75204	-60.23654999999992	-55.64224	1272.62482	-11.613399999999915	-20.80203	1361.57584	-1.1485799999999142	28.71446	1469.66982	9.443870000000087	75.93379	1567.80946	17.739150000000084	322.36766	1647.57185	64.06515000000006	193.8545	1726.56852	35.86117000000009	133.10747	1659.31287	26.544920000000086	242.98813	1552.36746	52.19651000000007	237.6281	1771.74593	43.64598000000008	515.71168	1809.39378	32.92591000000005	422.16636	1788.46413	116.26165000000006	406.72436	1785.01839	-27.56587999999994	402.00243	1842.19207	44.28408000000007	205.85077000000004	1754.00678	219.50609000000009	276.55215	1736.65048	-130.2998299999999	353.63452000000007	1493.02425	243.24337000000003	343.16969	1480.77275	182.36872000000005	428.54735	1491.36519	-167.69243999999998	402.51291	1465.33075	-116.51688999999996	533.8337	1310.14505	235.71380000000002	558.9748	1340.39095	201.63931000000002	333.47058000000004	1474.647	232.14045000000004	633.88764	1342.81572	-156.71714	641.80006	1361.19298	-108.73208	409.532	1472.0946	-168.20291999999998	707.77951	1291.25732	186.96303	636.82289	1277.72962	225.12136	571.35392	1300.1907	218.10227000000003	796.22004	1362.97965	-77.08237000000001	739.81208	1340.77381	-131.70365	670.3869	1337.83855	-133.49033	-16.20771999999998	1211.11207	143.4446800000001	203.55361000000002	901.63401	132.59699000000003	224.1004	911.71598	62.53371000000003	245.03005	931.75229	107.71113000000003	54.366039999999984	1252.20565	-142.2960999999999	396.38715	1091.5323	-105.79682999999997	389.11282	1078.89794	-33.43638999999999	406.3415	1122.92678	-59.08797999999998	260.21681	873.17479	101.96823000000003	149.44281000000004	517.7536	130.55507	154.80284	516.34978	71.72234000000002	407.23484	1036.65578	-66.23469	121.87692999999999	800.81436	-114.21973999999997	119.06929	799.53816	-55.259379999999965	88.18529000000001	452.41225	90.61007000000001	239.41478	396.89763	79.37953	226.52518000000003	397.40811	154.67522	253.07010000000002	389.36806	119.45215	123.40836000000002	440.92647	96.86344000000001	323.13338	362.44028	131.70365	34.96782999999999	767.88844	-86.39861999999995	146.37993	655.583	-53.983179999999976	146.50754999999998	658.90112	-130.17221	161.82193	641.92768	-91.75864999999997	62.788949999999986	742.74734	-87.41957999999997	215.54987	588.45498	-93.92818999999999	
